<?xml version="1.0" encoding="UTF-8" standalone="no"?><!DOCTYPE svg PUBLIC "-//W3C//DTD SVG 1.1//EN" "http://www.w3.org/Graphics/SVG/1.1/DTD/svg11.dtd"><svg width="100%" height="100%" viewBox="0 0 116 96" version="1.1" xmlns="http://www.w3.org/2000/svg" xmlns:xlink="http://www.w3.org/1999/xlink" xml:space="preserve" xmlns:serif="http://www.serif.com/" style="fill-rule:evenodd;clip-rule:evenodd;stroke-linejoin:round;stroke-miterlimit:2;"><rect x="0" y="-0" width="95.255" height="95.255" style="fill:#424242;"/><path d="M18.246,26.168c0,0 2.64,1.006 3.784,4.861c1.144,3.856 22.657,60.352 22.657,60.352l3.509,-5.879c0,0 21.231,-53.112 23.128,-55.557c1.897,-2.445 6.031,-15.819 24.634,-18.974c13.392,-2.271 20.033,11.517 15.304,17.107c-4.462,5.274 -5.47,4.874 -5.47,4.874l3.05,0.523c0,0 4.549,-3.118 5.377,-5.466c1.02,-2.891 1.197,-5.229 -0.014,-8.477c-1.756,-4.71 -6.673,-12.782 -22.673,-9.591c-16,3.191 -22.299,19.49 -26.314,26.719c-4.015,7.229 -17.689,43.931 -17.689,43.931l-18.079,-52.421c0,0 0.116,-1.596 4.247,-1.948c3.009,-0.256 -15.452,-0.055 -15.452,-0.055Z" style="fill:#9b9b9b;"/></svg>