<?xml version="1.0" encoding="UTF-8" standalone="no"?><!DOCTYPE svg PUBLIC "-//W3C//DTD SVG 1.1//EN" "http://www.w3.org/Graphics/SVG/1.1/DTD/svg11.dtd"><svg width="100%" height="100%" viewBox="0 0 646 247" version="1.1" xmlns="http://www.w3.org/2000/svg" xmlns:xlink="http://www.w3.org/1999/xlink" xml:space="preserve" xmlns:serif="http://www.serif.com/" style="fill-rule:evenodd;clip-rule:evenodd;stroke-linejoin:round;stroke-miterlimit:2;"><g><path d="M185.677,67.32l29.373,0l-0.605,3.838c0,0 -8.263,0.487 -8.24,3.974c0.033,5.097 0.12,96.584 0.12,96.584l29.027,0c0,0 14.773,1.641 16.328,-17.624c3.11,-0.086 3.628,-0.086 3.628,-0.086l-0.086,22.202l-67.989,0l0.173,-2.678l4.147,0c0,0 1.901,-1.296 1.728,-3.628c-0.173,-2.333 -0.045,-97.725 -0.045,-97.725c0,0 -0.049,-1.282 -1.181,-1.328c-1.132,-0.045 -5.594,0 -5.594,0l-0.782,-3.529Z" style="fill:#9b9b9b;"/><path d="M376.071,208.972l15.529,0l-0.208,1.318c0,0 -1.667,0.117 -3.417,0.097c-1.744,-0.02 -1.865,0.619 -1.861,1.267c0.011,1.75 0.041,31.876 0.041,31.876l8.617,0c0,0 5.812,0.214 5.619,-9.367c1.068,-0.03 1.246,-0.03 1.246,-0.03l-0.043,10.939l-23.845,0l0.059,-0.919l1.926,0c0,0 0.653,-0.445 0.593,-1.246c-0.059,-0.801 -0.016,-32.267 -0.016,-32.267c0,0 -0.017,-0.44 -0.406,-0.456c-0.389,-0.016 -3.568,0 -3.568,0l-0.268,-1.212Z" style="fill:#9b9b9b;"/><path d="M295.898,207.679c3.73,0 14.18,1.187 14.18,18.545c0.018,0.4 -0.067,0.798 -0.067,0.798c0,0 0.086,0.399 0.067,0.798c0,16.027 -8.861,18.565 -13.2,18.586c-0.01,0.001 -0.061,0.001 -0.139,-0c-0.064,-0 -0.128,-0.002 -0.19,-0.003c-0.517,-0.009 -1.463,-0.028 -1.513,-0.028c-3.974,0 -14.071,-1.36 -14.071,-18.554c-0.018,-0.4 0.067,-0.798 0.067,-0.798c0,0 -0.086,-0.399 -0.067,-0.798c0,-17.243 10.182,-18.552 14.104,-18.552c0.026,0 0.41,0.004 0.83,0.007Zm-0.099,36.168c-0,-0.002 -0,-0.004 -0,-0.007c0.103,0.004 0.153,0.006 0.182,0.006c0.276,-0 0.542,-0.001 0.698,-0.004c1.775,-0.104 3.837,-0.966 5.422,-2.922c1.735,-2.142 2.133,-4.707 2.133,-6.37l0,-15.056c0,-1.663 -0.398,-4.229 -2.133,-6.37c-1.633,-2.016 -3.774,-2.87 -5.583,-2.93c0,0.003 0,0.007 0,0.01c-0.086,-0.004 -0.306,-0.005 -0.552,-0.006c-0.031,0.001 -0.08,0.002 -0.166,0.006c0,-0.002 0,-0.004 0,-0.006c-0.384,-0.001 -0.777,0 -0.812,-0.001c-1.898,-0.081 -4.27,0.737 -6.045,2.928c-1.735,2.142 -2.133,4.707 -2.133,6.37l0,15.056c0,1.663 0.398,4.229 2.133,6.37c1.775,2.191 4.148,3.009 6.045,2.928c0.031,-0.001 0.408,-0.001 0.812,-0.001Z" style="fill:#9b9b9b;"/><path d="M351.033,210.215c-0.042,-0.018 -0.091,-0.029 -0.147,-0.031c-0.389,-0.016 -3.568,0 -3.568,0l-0.268,-1.212l25.524,0l0.043,8.712c0,0 -0.178,0 -1.246,-0.03c0,-6.627 -5.619,-7.14 -5.619,-7.14l-7.925,0c-0.446,0.143 -0.624,0.392 -0.692,0.678c-0.002,1.965 -0.008,7.915 -0.015,14.106l4.629,0c0,0 2.29,0.291 2.327,-2.618c0.873,-0.036 0.96,0.017 0.96,0.017l-0.006,6.25l-1.272,0c0,0 0.473,-2.654 -1.781,-2.654l-4.858,0c-0,0.243 -0.001,0.485 -0.001,0.728c0.008,6.777 0.015,13.682 0.017,15.829c0.068,0.286 0.246,0.536 0.692,0.678l7.925,0c0,0 5.619,-0.513 5.619,-7.14c1.068,-0.03 1.246,-0.03 1.246,-0.03l-0.043,8.712l-25.524,0l0.268,-1.212c0,0 3.179,0.016 3.568,0c0.057,-0.002 0.105,-0.014 0.147,-0.031c0.11,-0.149 0.216,-0.348 0.258,-0.592c-0,-0.313 -0.001,-1.054 -0.003,-2.11c-0.012,-2.786 -0.014,-8.426 -0.012,-14.106c-0.002,-5.679 -0.001,-11.319 0.012,-14.106c0.001,-1.056 0.002,-1.796 0.003,-2.11c-0.043,-0.244 -0.148,-0.443 -0.258,-0.592Z" style="fill:#9b9b9b;"/><path d="M333.916,245.072l-10.016,0c0,0 0.105,-0.754 0.208,-1.318c1.73,0.025 2.359,-0.716 2.355,-1.364c-0.011,-1.75 -0.041,-31.876 -0.041,-31.876l-4.623,0c0,0 -5.619,0.513 -5.619,7.14c-1.068,0.03 -1.246,0.03 -1.246,0.03l0.043,-8.712l27.862,0l0.043,8.712c0,0 -0.178,0 -1.246,-0.03c0,-6.627 -5.619,-7.14 -5.619,-7.14l-4.623,0c0,0 -0.03,30.126 -0.041,31.876c-0.004,0.648 0.625,1.389 2.355,1.364c0.102,0.564 0.208,1.318 0.208,1.318Z" style="fill:#9b9b9b;"/><path d="M255.046,227.437c0.009,8.027 0.017,16.093 0.017,16.093l1.86,0c0.098,0.931 0.136,1.542 0.136,1.542l-9.85,0l0.059,-0.919l1.374,0c0,0 0.653,-0.445 0.593,-1.246c-0.059,-0.801 -0.016,-32.267 -0.016,-32.267c0,0 -0.017,-0.44 -0.406,-0.456c-0.389,-0.016 -2.114,0 -2.114,0l-0.268,-1.212l11.835,0l-0.208,1.318c0,0 0.572,0.117 -1.177,0.097c-1.744,-0.02 -1.865,0.619 -1.861,1.267c0.005,0.78 0.014,7.191 0.022,14.061l13.158,-0c0.004,-7.7 0.014,-15.076 0.014,-15.076c0,0 -0.017,-0.44 -0.406,-0.456c-0.389,-0.016 -2.114,0 -2.114,0l-0.268,-1.212l11.996,0.01l-0.208,1.318c0,0 0.412,0.107 -1.338,0.087c-1.744,-0.02 -1.865,0.619 -1.861,1.267c0.011,1.75 0.041,31.876 0.041,31.876l1.86,0c0.098,0.931 0.136,1.542 0.136,1.542l-9.85,0l0.059,-0.919l1.374,0c0,0 0.653,-0.445 0.593,-1.246c-0.028,-0.384 -0.033,-7.829 -0.03,-15.47l-13.155,0Z" style="fill:#9b9b9b;"/><path d="M347.835,1.243c-0.042,-0.018 -0.091,-0.029 -0.147,-0.031c-0.389,-0.016 -3.568,0 -3.568,0l-0.268,-1.212l25.524,0l0.043,8.712c0,0 -0.178,0 -1.246,-0.03c0,-6.627 -5.619,-7.14 -5.619,-7.14l-7.925,0c-0.446,0.143 -0.624,0.392 -0.692,0.678c-0.002,1.965 -0.008,7.915 -0.015,14.106l4.629,0c0,0 2.29,0.291 2.327,-2.618c0.873,-0.036 0.96,0.017 0.96,0.017l-0.006,6.25l-1.272,0c0,0 0.473,-2.654 -1.781,-2.654l-4.858,0c-0,0.243 -0.001,0.485 -0.001,0.728c0.008,6.777 0.015,13.682 0.017,15.829c0.068,0.286 0.246,0.536 0.692,0.678l7.925,0c0,0 5.619,-0.513 5.619,-7.14c1.068,-0.03 1.246,-0.03 1.246,-0.03l-0.043,8.712l-25.524,0l0.268,-1.212c0,0 3.179,0.016 3.568,0c0.057,-0.002 0.105,-0.014 0.147,-0.031c0.11,-0.149 0.216,-0.348 0.258,-0.592c-0,-0.313 -0.001,-1.054 -0.003,-2.11c-0.012,-2.786 -0.014,-8.426 -0.012,-14.106c-0.002,-5.679 -0.001,-11.319 0.012,-14.106c0.001,-1.056 0.002,-1.796 0.003,-2.11c-0.043,-0.244 -0.148,-0.443 -0.258,-0.592Z" style="fill:#9b9b9b;"/><path d="M295.187,36.1l-10.016,0c0,0 0.105,-0.754 0.208,-1.318c1.73,0.025 2.359,-0.716 2.355,-1.364c-0.011,-1.75 -0.041,-31.876 -0.041,-31.876l-4.623,0c0,0 -5.619,0.513 -5.619,7.14c-1.068,0.03 -1.246,0.03 -1.246,0.03l0.043,-8.712l27.862,0l0.043,8.712c0,0 -0.178,0 -1.246,-0.03c0,-6.627 -5.619,-7.14 -5.619,-7.14l-4.623,0c0,0 -0.03,30.126 -0.041,31.876c-0.004,0.648 0.625,1.389 2.355,1.364c0.102,0.564 0.208,1.318 0.208,1.318Z" style="fill:#9b9b9b;"/><path d="M317.818,18.465c0.009,8.027 0.017,16.093 0.017,16.093l1.86,0c0.098,0.931 0.136,1.542 0.136,1.542l-9.85,0l0.059,-0.919l1.374,0c0,0 0.653,-0.445 0.593,-1.246c-0.059,-0.801 -0.016,-32.267 -0.016,-32.267c0,0 -0.017,-0.44 -0.406,-0.456c-0.389,-0.016 -2.114,0 -2.114,0l-0.268,-1.212l11.835,0l-0.208,1.318c0,0 0.572,0.117 -1.177,0.097c-1.744,-0.02 -1.865,0.619 -1.861,1.267c0.005,0.78 0.014,7.191 0.022,14.061l13.158,-0c0.004,-7.7 0.014,-15.076 0.014,-15.076c0,0 -0.017,-0.44 -0.406,-0.456c-0.389,-0.016 -2.114,0 -2.114,0l-0.268,-1.212l11.996,0.01l-0.208,1.318c0,0 0.412,0.107 -1.338,0.087c-1.744,-0.02 -1.865,0.619 -1.861,1.267c0.011,1.75 0.041,31.876 0.041,31.876l1.86,0c0.098,0.931 0.136,1.542 0.136,1.542l-9.85,0l0.059,-0.919l1.374,0c0,0 0.653,-0.445 0.593,-1.246c-0.028,-0.384 -0.033,-7.829 -0.03,-15.47l-13.155,0Z" style="fill:#9b9b9b;"/><path d="M443.057,67.32l29.373,0l-0.605,3.838c0,0 -8.263,0.487 -8.24,3.974c0.033,5.097 0.12,98.132 0.12,98.132l5.661,0l0.684,2.944l-25.437,0l0.173,-2.678l4.147,0c0,0 1.901,-1.296 1.728,-3.628c-0.173,-2.333 -0.045,-97.725 -0.045,-97.725c0,0 -0.049,-1.282 -1.181,-1.328c-1.132,-0.045 -5.594,0 -5.594,0l-0.782,-3.529Z" style="fill:#9b9b9b;"/><path d="M381.992,126.542c0.026,23.743 0.047,46.722 0.047,46.722l5.661,0l0.684,2.944l-25.437,0l0.173,-2.678l4.147,0c0,0 1.901,-1.296 1.728,-3.628c-0.173,-2.333 -0.045,-97.725 -0.045,-97.725c0,0 -0.049,-1.282 -1.181,-1.328c-1.132,-0.045 -5.594,0 -5.594,0l-0.782,-3.529l42.555,0c8.363,0 30.552,8.707 30.148,21.734c-0.215,6.942 0,13.408 0,13.408c0,0 -3.982,20.735 -29.247,23.375c0,2.999 12.617,24.56 19.685,34.983c6.682,9.854 11.904,17.687 22.722,27.559c13.728,12.528 17.765,13.328 21.71,14.398c10.468,2.839 22.61,-1.687 26.772,-6.299c4.162,-4.612 3.183,-3.141 3.183,-3.141l1.705,2.073c0,0 -3.288,2.856 -4.93,4.285c-3.823,3.327 -13.75,6.894 -18.081,6.894c-4.331,0 -12.704,-0.239 -20.46,-2.842c-6.528,-2.191 -26.529,-16.055 -36.582,-27.54c-12.752,-14.569 -29.808,-49.749 -29.808,-49.749l-8.772,0.083Zm7.665,-55.343c-1.792,0.172 -7.757,0.969 -7.737,3.932c0.016,2.423 0.044,24.721 0.069,47.449l13.588,0c0,0 23.609,-3.667 24.137,-18.281c0.087,-2.4 -0.056,-10.11 -0.02,-11.955c0.153,-7.839 -2.166,-13.279 -9.895,-17.672c-2.575,-1.464 -5.745,-3.648 -20.141,-3.473Z" style="fill:#9b9b9b;"/><path d="M0,38.801c0,0 5.65,2.152 8.098,10.403c2.448,8.251 48.484,129.149 48.484,129.149l7.508,-12.58c0,0 45.433,-113.655 49.493,-118.887c4.06,-5.232 12.906,-33.852 52.716,-40.602c28.657,-4.859 42.87,24.645 32.748,36.607c-9.549,11.286 -11.705,10.429 -11.705,10.429l6.527,1.12c0,0 9.734,-6.672 11.507,-11.696c2.183,-6.188 2.562,-11.19 -0.029,-18.14c-3.758,-10.079 -14.28,-27.352 -48.518,-20.524c-34.238,6.828 -47.718,41.707 -56.309,57.176c-8.592,15.47 -37.853,94.009 -37.853,94.009l-38.688,-112.177c0,0 0.247,-3.416 9.088,-4.169c6.44,-0.549 -33.067,-0.118 -33.067,-0.118Z" style="fill:#9b9b9b;"/><path d="M89.727,176.909l0.736,-2.547l5.534,-2.025l38.606,-105.018l2.97,0.81l41.575,105.018l5.129,2.835l-30.237,0.81l1.62,-3.375l6.074,0.135l-10.124,-28.617l-40.63,-0.405l-9.477,27.568l5.595,1.802l2.146,3.45l-19.517,-0.442Zm22.816,-35.136l38.201,0l-19.573,-51.334l-18.628,51.334Z" style="fill:#9b9b9b;"/><path d="M532.722,144.103l-39.861,0c-4.654,12.339 -8.734,23.209 -10.445,27.896c-0.162,0.444 0.056,1.172 0.503,1.326c0.907,0.314 5.869,0.246 5.869,0.246l0,2.637l-15.541,0c0,0 -0.255,-2.639 -0.079,-2.632c4.319,0.172 5.333,-2.793 5.333,-2.793l37.878,-103.464l2.949,0c0,0 26.506,72.985 33.898,91.228c7.392,18.243 10.301,16.199 10.301,16.199l0,1.462l-25.242,0l0,-3.367l4.771,0l-10.335,-28.738Zm-38.712,-3.046l37.616,0l-18.326,-50.959c0,0 -10.397,27.393 -19.29,50.959Z" style="fill:#9b9b9b;"/><path d="M582.953,176.208l-18.037,0l-0.032,-2.493l6.925,0l0,-98.706c0,0 0.172,-4.107 -4.096,-4.147c-4.268,-0.04 -4.185,0.04 -4.185,0.04l0,-2.859l18.236,0.121l52.58,81.605l0,-78.603l-7.352,0l0,-3.847l18.922,0l0,3.525l-7.69,0l0,106.507l-2.428,0l-59.743,-90.554l0,86.804l6.9,0l-0.001,2.607Z" style="fill:#9b9b9b;"/><path d="M252.762,121.764c0.973,-14.142 8.723,-40.054 33.98,-49.576c43.399,-16.362 60.281,9.599 67.96,24.573c7.719,15.053 5.759,41.851 -2.88,54.713c-8.639,12.862 -26.301,24.189 -47.034,25.877c-20.734,1.688 -34.009,-9.1 -44.539,-24.341c-5.262,-7.617 -7.874,-25.615 -7.487,-31.246Zm29.098,-42.239c-20.084,9.947 -18.679,39.248 -13.941,52.547c2.293,6.436 7.052,22.742 21.791,31.794c14.171,8.704 27.194,8.519 37.187,3.113c9.993,-5.406 20.314,-8.682 20.15,-34.894c-0.164,-26.211 -9.822,-41.05 -15.399,-46.361c-6.88,-6.553 -22.256,-19.835 -49.788,-6.199Z" style="fill:#9b9b9b;"/></g></svg>